<?xml version="1.0" encoding="UTF-8"?>
<svg preserveAspectRatio="none" version="1.1" viewBox="0 0 1440 560" xmlns="http://www.w3.org/2000/svg">
<g mask="url(#a)">
<rect width="1440" height="560" fill="#1e3266"/>
<path d="m1464 560h-1464v-223.31q39.69-32.31 72 7.38 38.47-81.53 120-43.06 52.36-67.64 120-15.28 76.57-43.43 120 33.14 72.75-47.25 120 25.49 14.4-57.6 72-43.19 30.58-41.42 72-10.84 76.25-43.75 120 32.5 66.8-53.2 120 13.6 15.11-56.9 72-41.79 29.07-42.94 72-13.87 106.84-13.16 120 93.68 21.21-50.79 72-29.57 23.26-48.75 72-25.49 80.78-39.22 120 41.56z" fill="#182f5d"/>
<path d="m1512 560h-1512v-131.25q55.74-64.26 120-8.53 70.99-49.01 120 21.97 11.69-60.31 72-48.63 44.18-27.82 72 16.36 51.05-20.95 72 30.1 18.79-101.21 120-82.42 75.01-44.98 120 30.03 28.1-43.9 72-15.8 89.96-30.04 120 59.93 54.22-65.78 120-11.56 25.15-46.84 72-21.69 29.47-42.52 72-13.05 85.47-34.53 120 50.94 48.68-71.32 120-22.64 43.28-76.72 120-33.43z" fill="#25467d"/>
<path d="m1488 560h-1488v-114.5q82.75-37.25 120 45.49 28.86-91.14 120-62.29 83.31-36.69 120 46.63 52-68 120-16 29.3-42.7 72-13.41 50.19-21.8 72 28.39 47.7-24.3 72 23.4 66.26-53.74 120 12.52 38.08-81.92 120-43.84 25.49-46.51 72-21.03 95.63-24.36 120 71.27 39.43-80.57 120-41.13 66.24-53.76 120 12.47 65.53-54.47 120 11.07z" fill="#356cb1"/>
<path d="m1536 560h-1536v-4.99q12.03-59.97 72-47.93 53.5-66.5 120-13 102.31-17.7 120 84.61 42.41-77.58 120-35.17 13.44-58.56 72-45.12 76.08-43.92 120 32.16 87.84-32.17 120 55.67 21.54-98.46 120-76.91 66.01-53.99 120 12.02 73.84-46.16 120 27.69 69.2-50.79 120 18.41 1.02-70.98 72-69.97 65.29-54.71 120 10.58 81.12-38.88 120 42.24z" fill="#fff"/>
</g>
<defs>
<mask id="a">
<rect width="1440" height="560" fill="#fff"/>
</mask>
</defs>
</svg>